<svg id="wave" style="transform:rotate(0deg); transition: 0.3s" viewBox="0 0 1440 280" version="1.1" xmlns="http://www.w3.org/2000/svg"><defs><linearGradient id="sw-gradient-0" x1="0" x2="0" y1="1" y2="0"><stop stop-color="rgba(190, 1, 254, 1)" offset="0%"></stop><stop stop-color="rgba(255, 15, 91, 0.89)" offset="100%"></stop></linearGradient></defs><path style="transform:translate(0, 0px); opacity:1" fill="url(#sw-gradient-0)" d="M0,140L26.7,149.3C53.3,159,107,177,160,168C213.3,159,267,121,320,88.7C373.3,56,427,28,480,14C533.3,0,587,0,640,14C693.3,28,747,56,800,88.7C853.3,121,907,159,960,182C1013.3,205,1067,215,1120,214.7C1173.3,215,1227,205,1280,182C1333.3,159,1387,121,1440,102.7C1493.3,84,1547,84,1600,102.7C1653.3,121,1707,159,1760,144.7C1813.3,131,1867,65,1920,51.3C1973.3,37,2027,75,2080,112C2133.3,149,2187,187,2240,172.7C2293.3,159,2347,93,2400,56C2453.3,19,2507,9,2560,18.7C2613.3,28,2667,56,2720,74.7C2773.3,93,2827,103,2880,88.7C2933.3,75,2987,37,3040,42C3093.3,47,3147,93,3200,121.3C3253.3,149,3307,159,3360,177.3C3413.3,196,3467,224,3520,224C3573.3,224,3627,196,3680,154C3733.3,112,3787,56,3813,28L3840,0L3840,280L3813.3,280C3786.7,280,3733,280,3680,280C3626.7,280,3573,280,3520,280C3466.7,280,3413,280,3360,280C3306.7,280,3253,280,3200,280C3146.7,280,3093,280,3040,280C2986.7,280,2933,280,2880,280C2826.7,280,2773,280,2720,280C2666.7,280,2613,280,2560,280C2506.7,280,2453,280,2400,280C2346.7,280,2293,280,2240,280C2186.7,280,2133,280,2080,280C2026.7,280,1973,280,1920,280C1866.7,280,1813,280,1760,280C1706.7,280,1653,280,1600,280C1546.7,280,1493,280,1440,280C1386.7,280,1333,280,1280,280C1226.7,280,1173,280,1120,280C1066.7,280,1013,280,960,280C906.7,280,853,280,800,280C746.7,280,693,280,640,280C586.7,280,533,280,480,280C426.7,280,373,280,320,280C266.7,280,213,280,160,280C106.7,280,53,280,27,280L0,280Z"></path></svg>