<svg id="wave" style="transform:rotate(180deg); transition: 0.3s" viewBox="0 0 1440 340" version="1.1" xmlns="http://www.w3.org/2000/svg"><defs><linearGradient id="sw-gradient-0" x1="0" x2="0" y1="1" y2="0"><stop stop-color="rgba(190, 1, 254, 1)" offset="0%"></stop><stop stop-color="rgba(255, 15, 91, 0.89)" offset="100%"></stop></linearGradient></defs><path style="transform:translate(0, 0px); opacity:1" fill="url(#sw-gradient-0)" d="M0,34L60,73.7C120,113,240,193,360,192.7C480,193,600,113,720,68C840,23,960,11,1080,17C1200,23,1320,45,1440,51C1560,57,1680,45,1800,34C1920,23,2040,11,2160,5.7C2280,0,2400,0,2520,17C2640,34,2760,68,2880,90.7C3000,113,3120,125,3240,124.7C3360,125,3480,113,3600,136C3720,159,3840,215,3960,238C4080,261,4200,249,4320,226.7C4440,204,4560,170,4680,175.7C4800,181,4920,227,5040,215.3C5160,204,5280,136,5400,141.7C5520,147,5640,227,5760,226.7C5880,227,6000,147,6120,113.3C6240,79,6360,91,6480,102C6600,113,6720,125,6840,119C6960,113,7080,91,7200,119C7320,147,7440,227,7560,249.3C7680,272,7800,238,7920,187C8040,136,8160,68,8280,62.3C8400,57,8520,113,8580,141.7L8640,170L8640,340L8580,340C8520,340,8400,340,8280,340C8160,340,8040,340,7920,340C7800,340,7680,340,7560,340C7440,340,7320,340,7200,340C7080,340,6960,340,6840,340C6720,340,6600,340,6480,340C6360,340,6240,340,6120,340C6000,340,5880,340,5760,340C5640,340,5520,340,5400,340C5280,340,5160,340,5040,340C4920,340,4800,340,4680,340C4560,340,4440,340,4320,340C4200,340,4080,340,3960,340C3840,340,3720,340,3600,340C3480,340,3360,340,3240,340C3120,340,3000,340,2880,340C2760,340,2640,340,2520,340C2400,340,2280,340,2160,340C2040,340,1920,340,1800,340C1680,340,1560,340,1440,340C1320,340,1200,340,1080,340C960,340,840,340,720,340C600,340,480,340,360,340C240,340,120,340,60,340L0,340Z"></path></svg>